<?xml version="1.0" encoding="utf-8"?>
<!-- Generator: Adobe Illustrator 26.5.0, SVG Export Plug-In . SVG Version: 6.00 Build 0)  -->
<svg version="1.1" id="Layer_1" xmlns="http://www.w3.org/2000/svg" xmlns:xlink="http://www.w3.org/1999/xlink" x="0px" y="0px"
	 viewBox="0 0 467.1 140.9" style="enable-background:new 0 0 467.1 140.9;" xml:space="preserve">
<style type="text/css">
	.st0{fill:#FFFFFF;}
</style>
<g>
	<path d="M234.6,3.8c65,0,130,0,195,0c5.1,0,10.3,0,15.3,1c10.3,1.9,16.6,9.7,16.8,20.3c0.2,12.7,0.1,25.4,0.1,38.1
		c0,15.9,0.1,31.8,0,47.6c0,3.2-0.2,6.5-1,9.5c-2.4,8.5-8.6,13.1-17.1,14.5c-4.1,0.7-8.3,0.8-12.4,0.8c-131.2,0-262.3,0.1-393.5,0
		c-5.5,0-11.3-0.4-16.6-2c-8.9-2.7-13.5-9.6-13.6-18.8c-0.3-15-0.1-30-0.2-45c0-13.7-0.1-27.3,0-41c0-3.3,0.2-6.6,1-9.8
		C11,10.6,17.1,6,25.5,4.6c4.7-0.8,9.5-0.8,14.2-0.8C104.6,3.8,169.6,3.8,234.6,3.8z M123.5,56.4c-2.9-3.9-6.7-6.2-11.5-7
		c-4.3-0.7-8.3,0.2-12.1,2c-2.9,1.4-5.7,1.3-8.7,0c-2.3-1-4.8-1.8-7.2-1.9c-9.2-0.4-17,6.1-18.7,16c-2.3,13.9,2.4,25.9,11.5,36.3
		c3.9,4.5,6.9,5.1,12.4,2.7c5.1-2.2,9.9-2.2,14.8,0.1c3.2,1.5,6.5,1.7,9.4-0.4c6.2-4.6,9.5-11.2,12.2-18.1
		C113.7,79.9,111.8,65.2,123.5,56.4z M302.7,74.8c0-0.6,0.1-0.9,0.1-1.2c-0.9-5-3.8-8.4-8.6-10c-5-1.7-10.1-1.6-15,0.5
		c-5,2.2-7.6,6.6-7.2,12.1c0.3,4.5,3.7,8,9.5,9.7c3.7,1.1,7.5,1.9,11.2,3.1c2.5,0.8,4.1,2.5,4.1,5.4c0,2.9-1.8,4.6-4.2,5.6
		c-6.2,2.7-12.1,0.4-15.6-6c-1.9,0-3.8,0-5.7,0c-0.4,4.2,2.2,8.5,6.7,10.6c6.3,2.8,12.8,2.7,19.1-0.2c0.8-0.4,1.5-0.9,2.2-1.4
		c3.7-3,5-7.1,4.2-11.7c-0.8-5-4.6-7.2-8.9-8.6c-3.8-1.3-7.8-2.1-11.7-3.3c-2.3-0.7-4.2-2.3-4.1-5c0.1-2.8,1.7-4.7,4.4-5.5
		c5-1.7,11.2-1.3,13.8,6C298.7,74.8,300.6,74.8,302.7,74.8z M148.9,105.8c1.7,0,2.8-0.1,4,0c2.2,0.4,3.3-0.5,3.9-2.7
		c0.6-2.4,1.4-4.8,2.4-7.1c0.4-0.8,1.5-1.7,2.3-1.8c4.2-0.2,8.3,0,12.5-0.1c1.5,0,2.2,0.5,2.7,2c0.8,2.7,1.7,5.3,2.8,7.9
		c0.3,0.7,1.3,1.5,2.1,1.7c1.6,0.3,3.3,0.1,5.4,0.1c-5.1-14.1-10-27.7-15-41.2c-1-2.8-3.5-0.8-5.3-1.3c-1.7-0.4-2.6,0.4-3.1,2.1
		c-1.4,4.4-3.1,8.7-4.7,13.1C155.5,87.4,152.3,96.4,148.9,105.8z M225.5,74.8c0,13.9,0,27.6,0,41.1c2.2,0,4.1,0,6.2,0
		c0-4.9,0-9.6,0-14.9c0.6,0.7,0.8,1,1.1,1.2c5.5,5.9,14.5,5.2,19-1.5c2.9-4.3,3.3-9.2,2.5-14.2c-1-5.8-3.8-10.4-10-11.8
		c-5.1-1.1-9.3,0.5-12.8,5c-0.1-2-0.2-3.4-0.2-4.9C229.3,74.8,227.5,74.8,225.5,74.8z M197.4,101c7.3,8.3,18.3,6.2,21.7-3.6
		c1.6-4.4,1.6-8.9,0.3-13.4c-3-10.1-14.2-12.8-21.4-5.2c-0.2,0.2-0.6,0.3-1.2,0.6c0-1.8,0-3.2,0-4.5c-2.1,0-3.9,0-5.6,0
		c0,13.9,0,27.5,0,41.1c2.2,0,4.1,0,6.2,0C197.4,111,197.4,106.3,197.4,101z M407,91.8c1.7-11.5-6.7-19.7-17.2-17.1
		c-7.9,2-11.8,8.9-10.7,19c0.9,7.5,6.8,12.6,14.6,12.5c7-0.1,12.2-3.8,13-9.5c-2.8-0.1-5.5-0.8-7.6,2.3c-1.8,2.6-6.2,2.7-9.4,1.1
		c-3.2-1.6-4.6-4.4-4.1-8.3C392.8,91.8,399.9,91.8,407,91.8z M341.5,74.4c-9.1,0-14.8,6.1-14.8,15.9c0,9.7,5.8,16,14.9,15.9
		c8.8,0,14.7-6.4,14.7-15.8C356.3,80.6,350.5,74.4,341.5,74.4z M323.1,100.8c-5.2-0.1-5.8-0.7-5.8-5.5c0-3,0-6,0-9
		c0-2.2,0-4.3,0-6.7c2.2,0,3.9,0,5.7,0c0-1.7,0-3.2,0-5.1c-1.9,0-3.7,0-5.7,0c0-2.5,0-4.7,0-7c-2.2,0-4.2,0-6.5,0c0,2.4,0,4.7,0,6.9
		c-1.7,0.1-3,0.2-4.3,0.3c0,1.7,0,3.2,0,4.8c1.6,0.1,2.9,0.2,4.4,0.3c0,6.5-0.1,12.7,0,18.9c0.1,3.8,1.7,6.3,5,6.8
		c2.3,0.4,4.7,0.1,7.1,0.1C323.1,103.9,323.1,102.5,323.1,100.8z M361.8,74.8c0,10.4,0,20.6,0,30.9c2.1,0,4,0,6.2,0
		c0-6.3,0-12.4,0-18.6c0-4.4,2.6-6.9,7.1-6.9c0.7,0,1.5,0,2.1,0c0-2,0-3.8,0-6.1c-2,0.4-4,0.4-5.5,1.2c-1.5,0.8-2.6,2.3-4.2,3.7
		c0-1.5,0-2.8,0-4.2C365.5,74.8,363.7,74.8,361.8,74.8z M153.3,51.7c3.3-0.2,6.4-0.2,9.4-0.6c4.5-0.6,7.1-3.8,7.4-8.9
		c0.3-5.9-1.9-9.9-6.5-10.8c-3.3-0.7-6.8-0.5-10.4-0.7C153.3,37.9,153.3,44.5,153.3,51.7z M190.7,36.2c1.3,4.7,2.4,9.1,3.8,13.4
		c0.3,0.8,1.4,1.4,2.1,2.1c0.7-0.7,1.7-1.4,2-2.2c1-2.9,1.7-5.9,2.8-9.5c1.1,3.8,2,7,3.1,10.1c0.2,0.7,1.2,1.5,1.9,1.5
		c0.7,0,1.7-0.8,1.9-1.4c1.4-4.5,2.5-9.1,3.8-13.6c-2.9-0.5-2.9-0.5-3.5,1.9c-0.7,2.9-1.4,5.9-2.1,8.8c-1.4-2.9-2.4-5.8-2.9-8.7
		c-0.4-2.5-1.7-2.7-3.6-2.1c-1,3.7-2.1,7.4-3.3,11.8c-1.1-4.5-2-8.2-2.9-11.9C192.8,36.2,192,36.2,190.7,36.2z M287.4,38
		c-4-2.8-7-2.8-9.4-0.2c-2.6,2.8-2.8,8.8-0.3,11.9c2.3,2.8,5.4,2.8,9.1,0.4c1.2,0.7,2.1,1.3,3.6,2.1c0-7.9,0-14.9,0-21.9
		c-1,0-1.9,0-3,0C287.4,32.8,287.4,35.2,287.4,38z M95.1,48c9.5,0.6,15.9-9.6,14.7-16.7C101.4,31.7,94.7,39.2,95.1,48z M360,30.2
		c0,7.2,0,14.2,0,21.3c1,0,1.8,0,2.9,0c0-2.9,0-5.5,0-8.2c0-2.9,1.4-4.6,3.6-4.7c2.4-0.1,3.7,1.3,3.7,4.5c0.1,2.8,0,5.6,0,8.5
		c1.1,0,1.9,0,2.9,0c0-3.8,0.2-7.5-0.1-11.1c-0.2-2.6-1.9-4.4-4.6-4.3c-1.9,0.1-3.8,0.9-5.7,1.4c0-1,0-2.3,0-3.5c0-1.2,0-2.5,0-3.7
		C361.7,30.2,360.9,30.2,360,30.2z M391.1,44.6c0.4-5.1-1.8-8.4-5.5-8.7c-4.4-0.4-7.8,2-8.3,5.8c-0.7,5.8,1.6,9.6,6.1,10
		c4.1,0.4,6.7-1.2,7.1-4.8c-1.2,0.5-2.3,0.8-3.2,1.4c-3.4,2.2-6.5,0.7-6.9-3.7c1.7,0,3.5,0,5.2,0C387.4,44.6,389.1,44.6,391.1,44.6z
		 M272,52.2c0-4.2,0-7.5,0-10.9c0-3.1-1.5-4.9-4.2-5.3c-4.4-0.7-6.8,0.5-8.1,4.5c1.6-0.6,2.7-1.2,3.8-1.4c1.4-0.2,3-0.5,4.3,0
		c0.7,0.2,1,1.9,1.5,3c-2.8,0.4-5,0.5-7.2,1c-2.2,0.6-3.3,2.2-3.1,4.6c0.3,2.3,1.7,3.9,3.9,4c2,0,3.9-0.8,5.7-1.2
		C269.5,50.8,270.4,51.3,272,52.2z M173.8,43.5c-0.1,4.7,2.8,8.1,7.1,8.2c4.4,0.1,7.5-2.9,7.6-7.7c0.2-4.7-2.7-8.1-7.1-8.2
		C176.9,35.8,173.9,38.8,173.8,43.5z M255.7,43.8c0-4.9-2.7-7.9-7.2-7.9c-4.5,0-7.4,3-7.4,7.8c0,4.6,3,8,7.3,8
		C252.8,51.8,255.7,48.6,255.7,43.8z M303.3,43.7c-0.7,4.9,3.7,8.2,7.4,8.1c4.3-0.2,7.2-3.5,7.2-8.2c-0.1-4.7-3.1-7.8-7.6-7.7
		C305.9,36,303.2,39,303.3,43.7z M228.9,51.5c0-3.3-0.1-6.3,0-9.3c0.1-2.5-0.3-4.8-2.8-5.8c-2.5-1.1-4.9-0.8-6.5,1
		c-1.3-0.5-2.4-1-3.7-1.5c0,5.6,0,10.6,0,15.7c1,0,1.8,0,3,0c0-3,0.1-5.7,0-8.5c-0.1-2.6,1-4.1,3.5-4.3c2.3-0.2,3.5,1.2,3.5,4.3
		c0.1,2.9,0,5.7,0,8.7C227.1,51.5,227.8,51.5,228.9,51.5z M324.9,51.4c0-3.2-0.1-6.3,0-9.3c0.1-2.4,1.6-3.5,3.8-3.5
		c2.2,0,3.3,1.3,3.2,3.6c-0.1,3.1,0,6.1,0,9.5c1.2-0.1,2.1-0.1,3-0.1c0-3.8,0-7.3,0-10.7c-0.1-2.8-1.6-4.7-4.3-4.7
		c-1.9,0-3.7,0.8-5.4,1.2c-0.8-0.4-1.8-0.9-3.1-1.5c0,5.7,0,10.6,0,15.8C323,51.4,323.9,51.4,324.9,51.4z M349.4,39.8
		c0,2.5-0.1,5.5,0,8.6c0.1,2.2,2.6,3.7,5,3.1c0.7-0.2,1.1-1.4,1.2-1.5c-1.5-1.4-3-2.1-3.1-3c-0.3-2.7-0.1-5.5-0.1-8.2
		c3.5-0.5,3.5-0.5,2.9-2.7c-0.9-0.1-1.8-0.2-2.9-0.3c-0.1-1.3-0.1-2.4-0.2-3.7c-1,0-1.8,0.1-2.7,0.1c-0.1,1.2-0.2,2.3-0.2,3
		c-0.9,0.7-1.6,1.3-2.3,1.9C347.6,38,348.3,38.7,349.4,39.8z M236.7,51.4c0-7.2,0-14.1,0-21.1c-1,0-1.9,0-2.8,0c0,7.1,0,14,0,21.1
		C234.9,51.4,235.7,51.4,236.7,51.4z"/>
	<path class="st0" d="M123.5,56.4c-11.7,8.8-9.9,23.5,2.1,29.7c-2.6,7-6,13.5-12.2,18.1c-2.9,2.2-6.2,1.9-9.4,0.4
		c-5-2.3-9.8-2.3-14.8-0.1c-5.5,2.4-8.6,1.7-12.4-2.7c-9-10.4-13.8-22.4-11.5-36.3C67,55.6,74.8,49,84,49.4c2.4,0.1,4.9,1,7.2,1.9
		c3,1.3,5.7,1.3,8.7,0c3.8-1.8,7.8-2.7,12.1-2C116.9,50.1,120.6,52.5,123.5,56.4z"/>
	<path class="st0" d="M302.7,74.8c-2.1,0-4,0-5.9,0c-2.5-7.3-8.8-7.7-13.8-6c-2.6,0.9-4.3,2.7-4.4,5.5c-0.1,2.7,1.8,4.3,4.1,5
		c3.8,1.3,7.8,2.1,11.7,3.3c4.3,1.4,8.1,3.6,8.9,8.6c0.8,4.6-0.5,8.6-4.2,11.7c-0.7,0.5-1.4,1.1-2.2,1.4c-6.3,2.8-12.8,3-19.1,0.2
		c-4.5-2-7.1-6.3-6.7-10.6c1.9,0,3.8,0,5.7,0c3.5,6.4,9.4,8.7,15.6,6c2.5-1.1,4.2-2.7,4.2-5.6c0-2.8-1.6-4.6-4.1-5.4
		c-3.7-1.2-7.4-2.1-11.2-3.1c-5.8-1.7-9.2-5.1-9.5-9.7c-0.4-5.5,2.2-9.9,7.2-12.1c4.9-2.1,10-2.3,15-0.5c4.8,1.6,7.7,5,8.6,10
		C302.8,73.9,302.7,74.2,302.7,74.8z"/>
	<path class="st0" d="M148.9,105.8c3.4-9.4,6.6-18.4,9.9-27.4c1.6-4.4,3.3-8.7,4.7-13.1c0.6-1.7,1.5-2.5,3.1-2.1
		c1.8,0.5,4.3-1.5,5.3,1.3c5,13.6,9.9,27.2,15,41.2c-2,0-3.7,0.2-5.4-0.1c-0.8-0.1-1.8-0.9-2.1-1.7c-1.1-2.6-2-5.2-2.8-7.9
		c-0.4-1.4-1.1-2-2.7-2c-4.2,0.1-8.3-0.1-12.5,0.1c-0.8,0-2,1-2.3,1.8c-1,2.3-1.8,4.7-2.4,7.1c-0.6,2.2-1.6,3-3.9,2.7
		C151.7,105.6,150.5,105.8,148.9,105.8z M168.1,70.9c-0.2,0-0.4,0-0.6-0.1c-2,5.9-4.1,11.9-6.1,17.9c4.3,0,8.5,0,12.8,0
		C172.2,82.7,170.1,76.8,168.1,70.9z"/>
	<path class="st0" d="M225.5,74.8c1.9,0,3.7,0,5.7,0c0.1,1.6,0.1,2.9,0.2,4.9c3.5-4.5,7.7-6.1,12.8-5c6.2,1.4,9.1,5.9,10,11.8
		c0.8,5,0.4,9.9-2.5,14.2c-4.5,6.7-13.4,7.4-19,1.5c-0.2-0.2-0.4-0.5-1.1-1.2c0,5.3,0,10,0,14.9c-2.1,0-4,0-6.2,0
		C225.5,102.4,225.5,88.7,225.5,74.8z M231.6,90.1c0.1,1.1,0.1,2.1,0.3,3.2c1.1,6.5,7.7,9.6,12.5,5.9c2.8-2.2,3.5-5.4,3.6-8.8
		c0.2-6.2-3.2-10.5-8.2-10.6C234.9,79.8,231.6,83.9,231.6,90.1z"/>
	<path class="st0" d="M197.4,101c0,5.3,0,10,0,14.9c-2.1,0-4,0-6.2,0c0-13.5,0-27.2,0-41.1c1.7,0,3.5,0,5.6,0c0,1.4,0,2.8,0,4.5
		c0.6-0.3,1-0.4,1.2-0.6c7.2-7.6,18.4-4.9,21.4,5.2c1.3,4.4,1.3,8.9-0.3,13.4C215.6,107.1,204.7,109.3,197.4,101z M197.3,89.4
		c0.1,1.8,0.1,2.8,0.2,3.7c0.6,4,3.5,7.1,7,7.5c4,0.4,7.5-1.6,8.3-5.5c0.6-3,0.7-6.3,0.1-9.4c-0.6-3.6-3.9-5.8-7.3-5.9
		c-3.4-0.1-6.3,2-7.5,5.6C197.6,87,197.5,88.6,197.3,89.4z"/>
	<path class="st0" d="M407,91.8c-7.1,0-14.2,0-21.3,0c-0.5,3.9,0.9,6.7,4.1,8.3c3.2,1.6,7.6,1.5,9.4-1.1c2.2-3.1,4.8-2.4,7.6-2.3
		c-0.9,5.7-6.1,9.4-13,9.5c-7.8,0.1-13.7-5-14.6-12.5c-1.2-10,2.8-17,10.7-19C400.3,72.1,408.7,80.3,407,91.8z M400.8,87.2
		c-0.3-5.3-3.4-8-8.5-7.6c-3.9,0.3-6.9,3.8-6.5,7.6C390.8,87.2,395.8,87.2,400.8,87.2z"/>
	<path class="st0" d="M341.5,74.4c9,0,14.8,6.3,14.8,16c0,9.5-5.9,15.8-14.7,15.8c-9,0-14.9-6.2-14.9-15.9
		C326.7,80.5,332.4,74.4,341.5,74.4z M341.6,79.6c-3.3,0.1-5.7,1.3-7,4.1c-2,4.3-2.1,8.8,0,13.1c1.4,2.9,4,4.2,7.1,4.1
		c3-0.1,5.5-1.4,6.7-4.3c1.9-4.2,1.9-8.6,0-12.8C347,80.9,344.6,79.6,341.6,79.6z"/>
	<path class="st0" d="M323.1,100.8c0,1.6,0,3.1,0,4.8c-2.4,0-4.8,0.3-7.1-0.1c-3.3-0.6-5-3-5-6.8c-0.1-6.2,0-12.4,0-18.9
		c-1.5-0.1-2.9-0.2-4.4-0.3c0-1.6,0-3.1,0-4.8c1.3-0.1,2.7-0.2,4.3-0.3c0-2.3,0-4.5,0-6.9c2.3,0,4.3,0,6.5,0c0,2.3,0,4.5,0,7
		c2,0,3.8,0,5.7,0c0,1.8,0,3.3,0,5.1c-1.8,0-3.5,0-5.7,0c0,2.4,0,4.6,0,6.7c0,3,0,6,0,9C317.3,100.1,317.9,100.7,323.1,100.8z"/>
	<path class="st0" d="M361.8,74.8c1.9,0,3.7,0,5.7,0c0,1.4,0,2.7,0,4.2c1.5-1.4,2.6-3,4.2-3.7c1.5-0.8,3.5-0.8,5.5-1.2
		c0,2.3,0,4.1,0,6.1c-0.6,0-1.3,0-2.1,0c-4.5,0-7.1,2.4-7.1,6.9c0,6.2,0,12.3,0,18.6c-2.2,0-4.1,0-6.2,0
		C361.8,95.4,361.8,85.2,361.8,74.8z"/>
	<path class="st0" d="M153.3,51.7c0-7.2,0-13.9,0-21c3.5,0.2,7,0.1,10.4,0.7c4.6,0.9,6.8,4.9,6.5,10.8c-0.3,5.1-2.9,8.3-7.4,8.9
		C159.7,51.6,156.6,51.6,153.3,51.7z M156.3,48.4c4,0.4,7.8,0.8,9.9-3.3c1.5-2.9,1.4-6-0.6-8.8c-1.8-2.5-5.4-3.2-9.3-2
		C156.3,39,156.3,43.6,156.3,48.4z"/>
	<path class="st0" d="M190.7,36.2c1.3,0,2,0,3,0c0.9,3.7,1.8,7.5,2.9,11.9c1.2-4.4,2.3-8,3.3-11.8c2-0.6,3.2-0.4,3.6,2.1
		c0.5,3,1.6,5.8,2.9,8.7c0.7-2.9,1.4-5.9,2.1-8.8c0.6-2.4,0.6-2.4,3.5-1.9c-1.2,4.6-2.4,9.1-3.8,13.6c-0.2,0.7-1.3,1.4-1.9,1.4
		c-0.6,0-1.7-0.8-1.9-1.5c-1.1-3.1-1.9-6.4-3.1-10.1c-1,3.6-1.8,6.6-2.8,9.5c-0.3,0.9-1.3,1.5-2,2.2c-0.7-0.7-1.9-1.2-2.1-2.1
		C193.1,45.2,192,40.8,190.7,36.2z"/>
	<path class="st0" d="M287.4,38c0-2.8,0-5.2,0-7.8c1.1,0,2,0,3,0c0,7.1,0,14.1,0,21.9c-1.4-0.9-2.3-1.4-3.6-2.1
		c-3.7,2.4-6.8,2.4-9.1-0.4c-2.5-3-2.3-9,0.3-11.9C280.4,35.2,283.5,35.2,287.4,38z M283.2,48.9c2.6,0,4.4-2,4.4-5
		c0-2.9-1.9-5.3-4.2-5.4c-2.4-0.1-4.2,2.1-4.3,5.2C279,46.8,280.7,48.9,283.2,48.9z"/>
	<path class="st0" d="M95.1,48c-0.4-8.8,6.3-16.3,14.7-16.7C111,38.4,104.7,48.6,95.1,48z"/>
	<path class="st0" d="M360,30.2c0.9,0,1.7,0,2.9,0c0,1.3,0,2.5,0,3.7c0,1.3,0,2.5,0,3.5c1.9-0.5,3.8-1.3,5.7-1.4
		c2.7-0.1,4.4,1.7,4.6,4.3c0.2,3.6,0.1,7.3,0.1,11.1c-1.1,0-1.9,0-2.9,0c0-2.9,0.1-5.7,0-8.5c-0.1-3.1-1.3-4.6-3.7-4.5
		c-2.3,0.1-3.6,1.8-3.6,4.7c0,2.7,0,5.4,0,8.2c-1.1,0-1.9,0-2.9,0C360,44.3,360,37.3,360,30.2z"/>
	<path class="st0" d="M391.1,44.6c-1.9,0-3.7,0-5.4,0c-1.7,0-3.5,0-5.2,0c0.4,4.3,3.5,5.8,6.9,3.7c0.9-0.6,1.9-0.9,3.2-1.4
		c-0.4,3.7-3,5.2-7.1,4.8c-4.5-0.4-6.8-4.2-6.1-10c0.4-3.8,3.9-6.2,8.3-5.8C389.3,36.3,391.4,39.5,391.1,44.6z M388,42.3
		c-0.2-2.6-1.4-4-3.7-3.9c-2.4,0.1-3.8,1.3-3.9,3.9C383,42.3,385.4,42.3,388,42.3z"/>
	<path class="st0" d="M272,52.2c-1.5-0.8-2.5-1.4-3.3-1.8c-1.8,0.4-3.8,1.3-5.7,1.2c-2.2,0-3.6-1.6-3.9-4c-0.3-2.4,0.8-4,3.1-4.6
		c2.1-0.5,4.4-0.6,7.2-1c-0.5-1.2-0.8-2.8-1.5-3c-1.3-0.4-2.9-0.2-4.3,0c-1.2,0.2-2.3,0.8-3.8,1.4c1.3-4,3.7-5.1,8.1-4.5
		c2.7,0.4,4.2,2.2,4.2,5.3C272,44.6,272,48,272,52.2z M268.9,44.5c-2,0.2-3.7,0.3-5.3,0.7c-0.6,0.2-1.4,1.2-1.4,1.8
		c0,0.6,0.8,1.5,1.4,1.8C266.3,50.1,268.6,48.5,268.9,44.5z"/>
	<path class="st0" d="M173.8,43.5c0.1-4.7,3.1-7.7,7.6-7.6c4.3,0.1,7.2,3.4,7.1,8.2c-0.2,4.7-3.2,7.8-7.6,7.7
		C176.6,51.6,173.6,48.2,173.8,43.5z M177,43.7c0,3.4,1.4,5.3,3.9,5.4c2.7,0.1,4.2-1.7,4.3-5c0.1-3.4-1.5-5.6-4.1-5.6
		C178.7,38.4,177.1,40.4,177,43.7z"/>
	<path class="st0" d="M255.7,43.8c0,4.8-2.9,7.9-7.3,7.9c-4.3,0-7.3-3.4-7.3-8c0-4.8,2.9-7.8,7.4-7.8
		C253,35.9,255.7,38.9,255.7,43.8z M252.6,43.9c0.1-3.2-1.5-5.4-4-5.4c-2.7-0.1-4.4,2-4.4,5.3c0,3.2,1.6,5.3,4.2,5.3
		C251,49.1,252.6,47.1,252.6,43.9z"/>
	<path class="st0" d="M303.3,43.7c-0.1-4.7,2.6-7.7,7-7.8c4.5-0.1,7.5,3,7.6,7.7c0.1,4.7-2.9,8-7.2,8.2
		C307,51.9,302.5,48.6,303.3,43.7z M314.5,43.8c0-3.3-1.5-5.3-4-5.3c-2.5-0.1-4.2,2-4.2,5.2c0,3.4,1.6,5.5,4.2,5.4
		C313.2,49,314.5,47.2,314.5,43.8z"/>
	<path class="st0" d="M228.9,51.5c-1.1,0-1.8,0-3,0c0-2.9,0-5.8,0-8.7c-0.1-3-1.2-4.5-3.5-4.3c-2.6,0.2-3.6,1.8-3.5,4.3
		c0.1,2.8,0,5.6,0,8.5c-1.1,0-1.9,0-3,0c0-5.1,0-10,0-15.7c1.3,0.6,2.4,1,3.7,1.5c1.6-1.7,4-2.1,6.5-1c2.5,1.1,2.9,3.4,2.8,5.8
		C228.8,45.2,228.9,48.1,228.9,51.5z"/>
	<path class="st0" d="M324.9,51.4c-1.1,0-1.9,0-2.9,0c0-5.1,0-10.1,0-15.8c1.3,0.6,2.3,1.1,3.1,1.5c1.7-0.4,3.5-1.2,5.4-1.2
		c2.7,0,4.3,1.9,4.3,4.7c0.1,3.5,0,6.9,0,10.7c-0.9,0-1.8,0.1-3,0.1c0-3.3,0-6.4,0-9.5c0-2.3-1.1-3.6-3.2-3.6
		c-2.2,0-3.7,1.2-3.8,3.5C324.9,45.2,324.9,48.2,324.9,51.4z"/>
	<path class="st0" d="M349.4,39.8c-1.1-1.2-1.7-1.9-2.4-2.6c0.7-0.6,1.4-1.2,2.3-1.9c0.1-0.7,0.1-1.8,0.2-3c0.9,0,1.7-0.1,2.7-0.1
		c0.1,1.3,0.1,2.4,0.2,3.7c1,0.1,1.9,0.2,2.9,0.3c0.6,2.3,0.6,2.3-2.9,2.7c0,2.7-0.2,5.5,0.1,8.2c0.1,0.9,1.6,1.6,3.1,3
		c-0.1,0.1-0.5,1.3-1.2,1.5c-2.4,0.6-4.9-0.9-5-3.1C349.3,45.4,349.4,42.3,349.4,39.8z"/>
	<path class="st0" d="M236.7,51.4c-1,0-1.8,0-2.8,0c0-7.1,0-14,0-21.1c0.9,0,1.7,0,2.8,0C236.7,37.3,236.7,44.2,236.7,51.4z"/>
	<path d="M168.1,70.9c2,5.9,4,11.8,6.1,17.9c-4.4,0-8.5,0-12.8,0c2.1-6,4.1-12,6.1-17.9C167.7,70.9,167.9,70.9,168.1,70.9z"/>
	<path d="M231.6,90.1c0-6.2,3.3-10.3,8.2-10.3c5,0.1,8.4,4.4,8.2,10.6c-0.1,3.4-0.8,6.6-3.6,8.8c-4.8,3.7-11.4,0.6-12.5-5.9
		C231.7,92.2,231.7,91.2,231.6,90.1z"/>
	<path d="M197.3,89.4c0.1-0.8,0.3-2.5,0.8-4c1.2-3.6,4.1-5.7,7.5-5.6c3.4,0.1,6.7,2.3,7.3,5.9c0.5,3,0.5,6.4-0.1,9.4
		c-0.8,4-4.4,5.9-8.3,5.5c-3.5-0.4-6.4-3.5-7-7.5C197.4,92.2,197.4,91.2,197.3,89.4z"/>
	<path d="M400.8,87.2c-5,0-10,0-14.9,0c-0.4-3.8,2.5-7.3,6.5-7.6C397.3,79.2,400.5,81.9,400.8,87.2z"/>
	<path d="M341.6,79.6c3,0,5.5,1.3,6.8,4.2c1.9,4.2,1.9,8.6,0,12.8c-1.2,2.8-3.7,4.2-6.7,4.3c-3.1,0.1-5.7-1.2-7.1-4.1
		c-2.1-4.3-2.1-8.8,0-13.1C335.9,80.9,338.3,79.6,341.6,79.6z"/>
	<path d="M156.3,48.4c0-4.9,0-9.5,0-14.1c3.9-1.2,7.5-0.5,9.3,2c1.9,2.7,2.1,5.8,0.6,8.8C164.1,49.2,160.3,48.8,156.3,48.4z"/>
	<path d="M283.2,48.9c-2.6,0-4.2-2.1-4.1-5.2c0.1-3.1,1.9-5.2,4.3-5.2c2.4,0.1,4.2,2.4,4.2,5.4C287.6,46.9,285.8,48.9,283.2,48.9z"
		/>
	<path d="M388,42.3c-2.7,0-5.1,0-7.6,0c0.1-2.6,1.6-3.9,3.9-3.9C386.6,38.3,387.8,39.7,388,42.3z"/>
	<path d="M268.9,44.5c-0.3,3.9-2.6,5.6-5.3,4.3c-0.6-0.3-1.4-1.2-1.4-1.8c0-0.6,0.8-1.7,1.4-1.8C265.2,44.8,266.9,44.7,268.9,44.5z"
		/>
	<path d="M177,43.7c0-3.2,1.6-5.3,4.1-5.3c2.5,0,4.2,2.3,4.1,5.6c-0.1,3.3-1.6,5.1-4.3,5C178.4,49,177,47,177,43.7z"/>
	<path d="M252.6,43.9c-0.1,3.2-1.7,5.2-4.3,5.2c-2.5,0-4.2-2.1-4.2-5.3c0-3.3,1.8-5.4,4.4-5.3C251.1,38.5,252.7,40.7,252.6,43.9z"/>
	<path d="M314.5,43.8c0,3.4-1.4,5.2-4,5.3c-2.6,0.1-4.3-2-4.2-5.4c0-3.2,1.7-5.3,4.2-5.2C313.1,38.5,314.5,40.5,314.5,43.8z"/>
</g>
</svg>
