<?xml version="1.0" encoding="utf-8"?>
<!-- Generator: Adobe Illustrator 26.5.0, SVG Export Plug-In . SVG Version: 6.00 Build 0)  -->
<svg version="1.1" id="Layer_1" xmlns="http://www.w3.org/2000/svg" xmlns:xlink="http://www.w3.org/1999/xlink" x="0px" y="0px"
	 viewBox="0 0 467.1 140.9" style="enable-background:new 0 0 467.1 140.9;" xml:space="preserve">
<style type="text/css">
	.st0{fill:#040506;}
	.st1{fill:#F8F8F8;}
	.st2{fill:#62B667;}
	.st3{fill:#41BFEF;}
	.st4{fill:#50C2EB;}
	.st5{fill:#FFFFFF;}
	.st6{fill:#5CC3E5;}
	.st7{fill:#E5404B;}
	.st8{fill:#FCC709;}
	.st9{fill:#E3384F;}
	.st10{fill:#FDCE08;}
	.st11{fill:#EFEFF0;}
	.st12{fill:#DB3254;}
	.st13{fill:#141515;}
</style>
<g>
	<path class="st0" d="M232.6,135.6c-70.1,0-140.1,0-210.2,0c-8.9,0-14.4-3.8-16.2-11.2c-0.3-1.3-0.4-2.7-0.4-4c0-33.2,0-66.5,0-99.7
		c0-9.1,5.8-15,14.9-15.3c0.8,0,1.6,0,2.4,0c139.6,0,279.1,0,418.7,0c2,0,4.1-0.1,6.1,0.4c7,1.5,11.5,7,11.6,14.3
		c0.1,33.6,0.1,67.3,0,100.9c0,9-6.4,14.6-16,14.7c-38.6,0-77.3,0-115.9,0C296,135.6,264.3,135.6,232.6,135.6z M98.9,58.2
		c-0.3-0.6-0.9-0.8-1.6-0.9c-0.5-0.3-1-0.6-1.6-1c-6.4-3.7-12.7-7.4-19.1-11.1c-9.9-5.7-19.8-11.3-29.8-16.9
		C44,26.8,41,25,38.2,28.6c-0.9,1.2-1.3,2.6-1.3,4.2c0,5,0.1,10,0.1,14.9c0,7.1,0,14.1,0,21.2c0,13.1-0.1,26.1-0.1,39.2
		c0,1.7,0.1,3.5,2,4.5c1.8,2.5,4.1,1.7,6.1,0.7c4.5-2.4,8.8-5,13.2-7.6C65,101.8,72,98.4,78.5,94c5.9-2.8,11.4-6.1,17-9.5
		c2.1-0.9,4.2-2,6-3.5c3.5-1.9,7.1-3.7,10.5-5.7c5-3,5-6.9,0-9.9C107.7,62.9,103.3,60.6,98.9,58.2L98.9,58.2z M176.1,80.7
		c-2.7,0-5.4,0.1-8.2,0c-1.6-0.1-2.3,0.4-2.5,2.2c-0.3,3.3,0.6,4.7,4.1,4.3c2.4-0.3,4.9,0.1,7.3-0.1c3.2-0.2,3.3,1.1,2.3,3.6
		c-3,7.6-13.8,10.8-21.5,6.3c-8-4.6-10.5-14.7-5.8-22.6c4.7-7.7,14.5-10.2,22.2-5.1c3.3,2.2,4.4-0.1,5.8-1.7
		c1.9-2.4-1.1-2.8-2.2-3.6c-10-6.8-24.3-3.9-31.2,6.4c-6.9,10.1-4.3,23.9,5.9,30.8c7.3,4.9,15.2,5.6,23.2,1.9
		c7.4-3.4,10.6-9.7,11-17.6c0.1-3.1,0-5.7-4.4-4.9C180.2,81,178.1,80.7,176.1,80.7z M273.4,102.7c0.5,7.3-3.6,11.1-9.5,9.4
		c-1.8-0.5-3.1-1.7-4.1-3.1c-2-3-3.9-0.4-5.4,0.3c-2.4,1.1-0.1,2.5,0.5,3.4c3.2,4.7,8.9,6.5,14.7,5.2c5.7-1.3,9-4.8,9.8-10.5
		c1.3-9.4,0.3-19,0.6-28.4c0.1-2.2-1.7-2.3-2.8-1.8c-3.6,1.6-6.8,0.1-10.1-0.8c-1.1-0.3-2.4-0.1-3.6,0.2c-5.8,1.3-9.7,4.9-11.1,10.6
		c-1.4,6,0.1,11.3,5.2,15.2C262.7,106.3,268,106.4,273.4,102.7z M343.8,62.1c0-0.1,0-0.1,0-0.2c-2.4,0-4.9,0.1-7.3,0
		c-1.6-0.1-2.5,0.2-2.5,2.2c0.1,12.7,0.1,25.5,0,38.2c0,1.9,0.8,2.1,2.4,2.3c3.2,0.3,4.9-0.5,4.3-4.1c-0.2-1.3,0-2.7,0-4.1
		c0-8,0-8,7.9-8.1c0.7,0,1.4,0,2,0c7.1-0.4,12.7-5.9,12.9-12.7c0.2-7-4.7-12.7-11.9-13.5C348.9,61.9,346.3,62.1,343.8,62.1z
		 M395.1,87.3c-1.7-0.4-3.4-0.9-5-1.1c-6.3-0.9-12.7,3.2-13.4,8.5c-0.8,5.2,3.4,9.9,9.5,10.6c2.6,0.3,5.1-0.3,7.3-1.9
		c0.9-0.7,1.3-1.8,2.3,0.4c0.8,1.8,3.5,0.8,5.2,0.6c1.4-0.1,0.8-1.8,0.8-2.7c0.1-4.9,0.2-9.8,0-14.6c-0.2-5.1-3.5-8.8-8.9-10.2
		c-5.7-1.5-11.8,0.2-14.4,4.1c-0.5,0.7-1.6,1.9-0.3,2.3c2,0.6,3.6,3.1,6.4,0.6C388.4,80.2,394,82.4,395.1,87.3z M306.9,105.3
		c4.7,0,8-1,10.6-3.6c0.8-0.8,3.7-1.7,1.5-3.5c-1.4-1.1-2.8-3.9-5.6-1.1c-3.2,3.3-7.7,3.1-10.6,0.4c-1.5-1.4-2-2.3,0.5-3.3
		c4.9-1.8,9.8-3.9,14.7-5.9c1.1-0.5,2.8-0.6,1.8-2.8c-1.8-4-4.2-7.3-8.6-8.6c-5.5-1.6-10.3-0.4-14,3.9c-4.1,4.7-4.7,10.3-2.4,16
		C297.1,102.6,301.8,105,306.9,105.3z M188.6,90.8c0,8.3,6.3,14.5,14.7,14.5c8.2,0,14.8-6.7,14.7-14.7c-0.2-8-6.6-14.3-14.6-14.3
		C195,76.2,188.6,82.5,188.6,90.8z M234.9,76.3c-8.4,0-14.5,6.2-14.5,14.6c0,8.4,6.2,14.5,14.6,14.4c8.1,0,14.3-6.2,14.4-14.4
		C249.6,82.7,243.2,76.3,234.9,76.3z M431.2,77.2c-7.2-0.3-7.2-0.3-9.7,5.9c-1.5,3.9-3,7.7-4.9,12.4c-2.1-5.1-3.8-9.3-5.6-13.5
		c-2.3-5.5-2.3-5.5-8.9-4.5c2,4.5,3.5,9.2,6,13.3c4.7,7.9,5.7,15.6,0.1,23.4c-0.3,0.4-0.5,1-0.7,1.4c-0.2,0.5-0.3,1,0.3,1.4
		c1.4,1,6.1-0.1,6.8-1.7C420.1,102.8,425.5,90.2,431.2,77.2z M284.1,83.1c0,6.2,0.1,12.5-0.1,18.7c-0.1,2.5,1,2.9,3.1,2.8
		c2.1-0.1,3.6,0.1,3.5-2.9c-0.2-12.3-0.2-24.7,0-37c0-3.1-1.6-2.7-3.6-2.8c-2.2-0.1-3.1,0.4-3,2.9C284.2,70.9,284.1,77,284.1,83.1z
		 M366.6,83.1c0,6.1,0.1,12.2-0.1,18.3c-0.1,2.4,0.5,3.4,3.1,3.2c2.3-0.1,3.7-0.1,3.6-3.1c-0.2-12.2-0.2-24.4,0-36.6
		c0-2.8-1.2-3-3.4-2.9c-2.1,0-3.5-0.1-3.4,2.9C366.8,70.9,366.6,77,366.6,83.1z M161.5,38.7c-1.3,4.7-5,6.9-9.1,5.5
		c-4.3-1.4-6.5-6.3-4.7-10.5c1.9-4.4,6.5-6.2,10.7-3.8c1.3,0.7,2.6,2,3.5-0.1c0.7-1.7-1.1-2.3-2.1-2.8c-4.1-2-8.1-1.7-11.8,1
		c-3.8,2.8-4.7,6.8-4,11.2c0.8,5.4,6.2,9.1,12,8.5c5.1-0.5,9.2-4.8,9.1-9.7c0-1.2,0.2-2.5-1.7-2.5c-2.4,0-4.9,0.1-7.3,0
		c-1.3,0-1.5,0.6-1.6,1.8c0,1.4,0.7,1.5,1.8,1.4C157.9,38.7,159.7,38.7,161.5,38.7z M272.8,40.8c-3-4.7-5.5-8.5-7.8-12.4
		c-1-1.7-2.2-2.8-4.2-2.2c-1.9,0.6-1,2.3-1,3.5c-0.1,4.9,0,9.7,0,14.6c0,1.3-0.4,2.8,1.9,2.7c2.1-0.1,1.3-1.7,1.3-2.7
		c0.1-3.9,0-7.9,0-11.8c0.2,0,0.5,0,0.7,0c1.4,2.2,2.7,4.3,4.1,6.5c1.4,2.2,2.8,4.3,4.1,6.5c0.8,1.4,2,1.8,3.4,1.4
		c1.6-0.4,0.8-1.8,0.8-2.7c0.1-5.1,0.1-10.3,0-15.4c0-1.1,0.5-2.6-1.5-2.6c-1.9,0-1.7,1.2-1.7,2.5C272.8,32.3,272.8,36,272.8,40.8z
		 M246,25.7c-6.3,0-10.8,4.5-10.7,11c0,6.4,4.5,11,10.9,10.9c6,0,10.6-4.7,10.7-10.8C256.9,30.5,252.2,25.7,246,25.7z M167.5,36.5
		c0,2.7,0,5.4,0,8.1c0,1.3-0.1,2.5,1.8,2.4c3.1-0.1,6.2,0,9.4,0c0.8,0,1.7-0.1,1.6-1.3c0-0.9-0.4-1.6-1.4-1.6c-1.5,0-3-0.3-4.5,0
		c-3.7,0.7-4.1-1.4-3.6-4.1c0.6-3.9,3.7-1.2,5.4-1.9c1-0.4,3.1,0.9,3-1.4c0-2.2-1.9-1.3-3.1-1.5c-0.5-0.1-1.1,0-1.6,0
		c-1.9-0.1-3.9,0.7-3.9-2.8c-0.1-3.7,2.1-2.9,4.1-3c1.4,0,2.7,0,4.1,0c1,0,1.5-0.5,1.5-1.5c0-1-0.4-1.6-1.4-1.6
		c-3.6,0.1-7.8-1.2-10.8,0.6c-1.9,1.1-0.4,5-0.6,7.7C167.5,35.1,167.5,35.8,167.5,36.5z M189.7,26.1c-1.6,0-3.2,0-4.9,0
		c-1.3,0-2.6-0.1-2.5,1.8c0.1,1.6,1.3,1.6,2.4,1.4c3.2-0.5,3.5,1.3,3.4,3.8c-0.2,3.4-0.2,6.7,0,10.1c0.1,1.3-1.2,3.6,1.6,3.7
		c2.9,0.1,1.7-2.2,1.8-3.5c0.2-3.4,0.2-6.7,0-10.1c-0.2-2.8,0.3-4.5,3.6-4c1.2,0.2,2.2-0.1,2.1-1.7c0-1.6-1.1-1.6-2.2-1.6
		C193.2,26.1,191.5,26.1,189.7,26.1z M218.3,38c0,2.2,0,4.3,0,6.5c0,1.2-0.2,2.5,1.7,2.5c1.9,0,1.7-1.3,1.7-2.5
		c0-3.6,0.1-7.3,0-10.9c-0.1-2.7,0-5,3.7-4.3c1.2,0.2,2.1-0.3,2-1.7c-0.1-1.3-0.9-1.5-1.9-1.5c-3.7,0-7.3,0-11,0c-1,0-1.9,0.2-2,1.5
		c-0.1,1.5,0.9,1.9,2.1,1.7c3.8-0.7,3.8,1.6,3.6,4.3C218.2,35.1,218.3,36.6,218.3,38z M209.9,36.6c0-2.8,0-5.7,0-8.5
		c0-0.9,0.2-2-1.3-2c-1.3,0-2,0.4-2,1.9c0.1,5.7,0,11.4,0,17c0,1.3,0.3,2,1.8,2c1.8,0,1.4-1.2,1.4-2.2
		C209.9,42,209.9,39.3,209.9,36.6z"/>
	<path class="st1" d="M176.1,80.7c2,0,4.1,0.3,6.1-0.1c4.4-0.8,4.6,1.8,4.4,4.9c-0.4,7.9-3.6,14.2-11,17.6c-8,3.7-15.9,3-23.2-1.9
		c-10.3-6.9-12.8-20.7-5.9-30.8c7-10.3,21.2-13.2,31.2-6.4c1.1,0.8,4.1,1.1,2.2,3.6c-1.3,1.7-2.4,4-5.8,1.7
		c-7.7-5.2-17.6-2.7-22.2,5.1c-4.7,7.8-2.1,17.9,5.8,22.6c7.7,4.5,18.5,1.3,21.5-6.3c1-2.5,1-3.9-2.3-3.6c-2.4,0.2-4.9-0.2-7.3,0.1
		c-3.6,0.4-4.5-1-4.1-4.3c0.2-1.8,0.9-2.3,2.5-2.2C170.6,80.7,173.3,80.7,176.1,80.7z"/>
	<path class="st2" d="M38.2,28.6c2.8-3.6,5.8-1.7,8.6-0.2c10,5.6,19.9,11.2,29.8,16.9c6.4,3.7,12.8,7.4,19.1,11.1
		c-4.7,4.7-9.4,9.4-14.2,14.1c-0.3,0-0.6,0-0.9,0C69.9,59.8,59.2,49,48.4,38.3C45.1,35,42.1,31.3,38.2,28.6z"/>
	<path class="st3" d="M38.2,28.6c3.9,2.7,6.9,6.5,10.2,9.8C59.2,49,69.9,59.8,80.6,70.5c-3.4,3.4-6.8,6.7-10.2,10.1
		c-0.4-0.6-0.6-1.2-1.1-1.7c-10-10-20-19.9-29.9-29.9c-0.7-0.7-1.4-1.3-2.4-1.3c0-5-0.1-10-0.1-14.9C36.9,31.2,37.3,29.8,38.2,28.6z
		"/>
	<path class="st1" d="M273.4,102.7c-5.3,3.8-10.6,3.6-15.7-0.3c-5.1-3.9-6.6-9.2-5.2-15.2c1.4-5.7,5.3-9.3,11.1-10.6
		c1.2-0.3,2.5-0.5,3.6-0.2c3.3,0.9,6.5,2.4,10.1,0.8c1.1-0.5,2.8-0.4,2.8,1.8c-0.3,9.5,0.7,19-0.6,28.4c-0.8,5.7-4.1,9.2-9.8,10.5
		c-5.9,1.3-11.5-0.6-14.7-5.2c-0.6-0.9-3-2.3-0.5-3.4c1.5-0.7,3.4-3.3,5.4-0.3c1,1.5,2.3,2.6,4.1,3.1
		C269.8,113.8,273.8,109.9,273.4,102.7z M274.1,90.8c-0.1-5-3.4-8.7-7.8-8.5c-4.3,0.2-7.8,4.1-7.8,8.7c0,4.6,3.6,8.5,8,8.6
		C270.7,99.6,274.1,95.6,274.1,90.8z"/>
	<path class="st4" d="M37,47.7c1,0,1.7,0.6,2.4,1.3c10,10,20,19.9,29.9,29.9c0.5,0.5,0.7,1.1,1.1,1.7c-0.3,0.5-0.6,1-0.9,1.5
		c-3.2,3-6.5,6.1-9.7,9.1c-6.7-7.9-14.3-14.8-21.7-22c-0.2-0.2-0.8-0.2-1.1-0.3C37,61.8,37,54.7,37,47.7z"/>
	<path class="st5" d="M343.8,62.1c2.6,0,5.2-0.2,7.7,0c7.2,0.8,12.1,6.4,11.9,13.5c-0.2,6.8-5.8,12.3-12.9,12.7c-0.7,0-1.4,0-2,0
		c-7.9,0-7.9,0-7.9,8.1c0,1.4-0.2,2.7,0,4.1c0.6,3.6-1.1,4.4-4.3,4.1c-1.6-0.2-2.4-0.4-2.4-2.3c0.1-12.7,0.1-25.5,0-38.2
		c0-2,0.9-2.2,2.5-2.2c2.4,0.1,4.9,0,7.3,0C343.8,62,343.8,62.1,343.8,62.1z M340.6,74.8c0,7.7,0,7.7,7.6,7.6c0.9,0,1.9-0.1,2.8-0.2
		c3.3-0.6,5.3-2.8,5.8-6c0.6-3.3-1-5.9-3.9-7.3c-3.7-1.8-7.9-1.4-11.5-0.4C339.4,68.9,341.1,72.8,340.6,74.8z"/>
	<path class="st6" d="M37,68.8c0.4,0.1,0.9,0.1,1.1,0.3c7.4,7.2,15,14.1,21.7,22c-1.4,2.6-4.6,3.6-5.8,6.3c-5,5-10.1,10-15.1,15
		c-1.9-1-2-2.8-2-4.5C36.9,94.9,37,81.9,37,68.8z"/>
	<path class="st1" d="M395.1,87.3c-1.1-4.9-6.7-7.1-10.5-3.6c-2.8,2.6-4.4,0-6.4-0.6c-1.3-0.4-0.2-1.6,0.3-2.3
		c2.6-3.8,8.7-5.6,14.4-4.1c5.4,1.4,8.7,5.1,8.9,10.2c0.2,4.9,0.1,9.8,0,14.6c0,1,0.6,2.6-0.8,2.7c-1.8,0.2-4.4,1.2-5.2-0.6
		c-1-2.1-1.4-1-2.3-0.4c-2.2,1.6-4.7,2.2-7.3,1.9c-6-0.7-10.2-5.4-9.5-10.6c0.8-5.3,7.1-9.3,13.4-8.5
		C391.7,86.5,393.4,86.9,395.1,87.3z M390,91.6c-3.2,0.1-6.4,0.4-6.8,4.2c-0.3,2.9,2.5,3.5,4.8,3.6c3.2,0.1,7.4-3,7-5.4
		C394.6,91.1,391.9,91.8,390,91.6z"/>
	<path class="st1" d="M306.9,105.3c-5-0.4-9.8-2.8-12.1-8.6c-2.3-5.7-1.7-11.3,2.4-16c3.7-4.2,8.6-5.5,14-3.9
		c4.4,1.3,6.8,4.7,8.6,8.6c1,2.1-0.7,2.3-1.8,2.8c-4.9,2-9.7,4.1-14.7,5.9c-2.5,0.9-2.1,1.8-0.5,3.3c2.9,2.7,7.4,2.9,10.6-0.4
		c2.8-2.9,4.2,0,5.6,1.1c2.2,1.8-0.7,2.7-1.5,3.5C314.9,104.3,311.5,105.4,306.9,105.3z M312.7,84.9c-2.4-2.8-5-3.6-7.9-2.2
		c-3,1.4-4.7,3.7-4.7,7.5C304.4,88.4,308.4,86.7,312.7,84.9z"/>
	<path class="st1" d="M188.6,90.8c0-8.3,6.4-14.6,14.7-14.5c8,0,14.5,6.3,14.6,14.3c0.2,8.1-6.5,14.7-14.7,14.7
		C194.9,105.3,188.6,99.1,188.6,90.8z M203.1,82.2c-4.6,0-8,3.9-7.9,8.9c0.1,4.7,3.7,8.5,8,8.4c4.5-0.1,8.3-4.3,8.1-9
		C211.2,85.9,207.5,82.2,203.1,82.2z"/>
	<path class="st1" d="M234.9,76.3c8.3,0,14.6,6.4,14.6,14.7c-0.1,8.2-6.3,14.3-14.4,14.4c-8.4,0-14.6-6-14.6-14.4
		C220.4,82.5,226.6,76.3,234.9,76.3z M226.9,91c0.1,4.6,3.7,8.6,7.9,8.6c4.3,0,8.3-4.3,8.2-8.9c-0.1-4.6-3.7-8.4-8.1-8.5
		C230.4,82.1,226.9,86,226.9,91z"/>
	<path class="st1" d="M431.2,77.2c-5.6,12.9-11.1,25.5-16.6,38.1c-0.7,1.6-5.4,2.7-6.8,1.7c-0.6-0.4-0.5-0.9-0.3-1.4
		c0.2-0.5,0.4-1,0.7-1.4c5.5-7.8,4.6-15.5-0.1-23.4c-2.4-4.1-4-8.8-6-13.3c6.6-1,6.6-1,8.9,4.5c1.8,4.2,3.5,8.4,5.6,13.5
		c1.8-4.6,3.3-8.5,4.9-12.4C423.9,76.9,423.9,76.9,431.2,77.2z"/>
	<path class="st7" d="M69.5,82c0.3-0.5,0.6-1,0.9-1.5c3.4-3.4,6.8-6.7,10.2-10.1c0.3,0,0.6,0,0.9,0c4.6,4.7,9.3,9.4,13.9,14.1
		c-5.6,3.4-11.1,6.7-17,9.5c0.3-2.1-1.3-3.1-2.4-4.4C73.9,87.1,70.7,85.4,69.5,82z"/>
	<path class="st8" d="M95.5,84.6c-4.6-4.7-9.3-9.4-13.9-14.1c4.7-4.7,9.4-9.4,14.2-14.1c0.5,0.3,1,0.6,1.6,1
		c0.3,0.7,0.9,0.9,1.6,0.9c0,0,0,0,0,0c0,6.5,0,12.9,0,19.4c0,1.9,0,3.6,2.6,3.4C99.7,82.6,97.6,83.6,95.5,84.6z"/>
	<path class="st9" d="M69.5,82c1.2,3.4,4.4,5,6.6,7.6c1.1,1.3,2.7,2.4,2.4,4.4c-6.5,4.3-13.5,7.8-20.4,11.5c0.2-1.8-0.8-3-2-4.1
		c-1.2-1.1-2.4-2.1-2.1-4c1.2-2.8,4.4-3.8,5.8-6.3C63.1,88.1,66.3,85.1,69.5,82z"/>
	<path class="st1" d="M284.1,83.1c0-6.1,0.1-12.2-0.1-18.3c-0.1-2.4,0.8-3,3-2.9c1.9,0.1,3.6-0.3,3.6,2.8c-0.2,12.3-0.2,24.7,0,37
		c0,3-1.4,2.8-3.5,2.9c-2.1,0.1-3.2-0.3-3.1-2.8C284.2,95.5,284.1,89.3,284.1,83.1z"/>
	<path class="st5" d="M366.6,83.1c0-6.1,0.2-12.2-0.1-18.3c-0.1-3,1.4-2.8,3.4-2.9c2.2,0,3.4,0.1,3.4,2.9c-0.2,12.2-0.2,24.4,0,36.6
		c0,3.1-1.4,3-3.6,3.1c-2.6,0.2-3.2-0.8-3.1-3.2C366.8,95.3,366.6,89.2,366.6,83.1z"/>
	<path class="st10" d="M101.5,81.1c-2.6,0.2-2.6-1.5-2.6-3.4c0.1-6.5,0-12.9,0-19.4c4.4,2.4,8.8,4.6,13,7.2c5,3,5,6.9,0,9.9
		C108.6,77.4,105,79.2,101.5,81.1z"/>
	<path class="st11" d="M161.5,38.7c-1.8,0-3.6,0-5.3,0c-1,0-1.8,0-1.8-1.4c0-1.1,0.2-1.8,1.6-1.8c2.4,0.1,4.9,0,7.3,0
		c1.9,0,1.7,1.3,1.7,2.5c0.1,4.8-3.9,9.2-9.1,9.7c-5.8,0.5-11.2-3.2-12-8.5c-0.7-4.3,0.2-8.4,4-11.2c3.7-2.7,7.7-3,11.8-1
		c1,0.5,2.9,1.1,2.1,2.8c-0.9,2.1-2.2,0.9-3.5,0.1c-4.2-2.3-8.8-0.6-10.7,3.8c-1.8,4.2,0.4,9.1,4.7,10.5
		C156.5,45.5,160.2,43.3,161.5,38.7z"/>
	<path class="st11" d="M272.8,40.8c0-4.8,0-8.5,0-12.2c0-1.3-0.1-2.5,1.7-2.5c2.1,0,1.5,1.5,1.5,2.6c0,5.1,0.1,10.3,0,15.4
		c0,0.9,0.7,2.3-0.8,2.7c-1.4,0.4-2.6,0-3.4-1.4c-1.3-2.2-2.7-4.3-4.1-6.5c-1.4-2.2-2.7-4.3-4.1-6.5c-0.2,0-0.5,0-0.7,0
		c0,3.9,0.1,7.9,0,11.8c0,1,0.8,2.6-1.3,2.7c-2.2,0.2-1.9-1.4-1.9-2.7c0-4.9-0.1-9.7,0-14.6c0-1.2-0.9-2.9,1-3.5
		c2-0.6,3.2,0.5,4.2,2.2C267.3,32.3,269.8,36.1,272.8,40.8z"/>
	<path class="st11" d="M246,25.7c6.3,0,10.9,4.8,10.8,11.1c-0.1,6.2-4.7,10.8-10.7,10.8c-6.3,0-10.9-4.5-10.9-10.9
		C235.2,30.2,239.6,25.7,246,25.7z M253.3,37c0.1-4.8-2.7-8-7.1-8.1c-4.3-0.1-7.6,3.3-7.7,7.6c-0.1,4.4,3.3,7.9,7.5,7.9
		C250.1,44.5,253.2,41.3,253.3,37z"/>
	<path class="st1" d="M167.5,36.5c0-0.7-0.1-1.4,0-2c0.2-2.6-1.3-6.5,0.6-7.7c3-1.8,7.1-0.5,10.8-0.6c1,0,1.4,0.7,1.4,1.6
		c0,1-0.6,1.5-1.5,1.5c-1.4,0-2.7,0-4.1,0c-2,0-4.2-0.7-4.1,3c0.1,3.5,2,2.7,3.9,2.8c0.5,0,1.1-0.1,1.6,0c1.2,0.2,3.1-0.8,3.1,1.5
		c0,2.4-2,1-3,1.4c-1.8,0.8-4.9-2-5.4,1.9c-0.4,2.7,0,4.8,3.6,4.1c1.4-0.3,3,0,4.5,0c1,0,1.4,0.6,1.4,1.6c0,1.2-0.8,1.3-1.6,1.3
		c-3.1,0-6.2-0.1-9.4,0c-1.9,0.1-1.8-1.1-1.8-2.4C167.5,41.9,167.5,39.2,167.5,36.5z"/>
	<path class="st12" d="M54,97.5c-0.3,1.9,0.9,2.9,2.1,4c1.2,1.1,2.2,2.3,2,4.1c-4.4,2.5-8.7,5.2-13.2,7.6c-2,1-4.3,1.8-6.1-0.7
		C44,107.5,49,102.5,54,97.5z"/>
	<path class="st11" d="M189.7,26.1c1.8,0,3.5,0,5.3,0c1.1,0,2.2,0,2.2,1.6c0,1.5-0.9,1.9-2.1,1.7c-3.3-0.6-3.8,1.2-3.6,4
		c0.2,3.4,0.2,6.7,0,10.1c-0.1,1.3,1.2,3.7-1.8,3.5c-2.8-0.1-1.5-2.4-1.6-3.7c-0.2-3.4-0.2-6.7,0-10.1c0.1-2.5-0.2-4.3-3.4-3.8
		c-1.1,0.2-2.3,0.1-2.4-1.4c-0.1-1.9,1.2-1.8,2.5-1.8C186.5,26.1,188.1,26.1,189.7,26.1z"/>
	<path class="st11" d="M218.3,38c0-1.5-0.1-3,0-4.4c0.2-2.6,0.2-5-3.6-4.3c-1.2,0.2-2.2-0.2-2.1-1.7c0.1-1.3,0.9-1.5,2-1.5
		c3.7,0,7.3,0,11,0c1.1,0,1.9,0.2,1.9,1.5c0.1,1.5-0.8,2-2,1.7c-3.8-0.7-3.8,1.6-3.7,4.3c0.1,3.6,0,7.3,0,10.9
		c0,1.2,0.2,2.5-1.7,2.5c-1.9,0-1.7-1.2-1.7-2.5C218.3,42.4,218.3,40.2,218.3,38z"/>
	<path class="st11" d="M209.9,36.6c0,2.7,0,5.4,0,8.1c0,1,0.4,2.2-1.4,2.2c-1.5,0-1.8-0.6-1.8-2c0-5.7,0.1-11.4,0-17
		c0-1.5,0.7-1.9,2-1.9c1.5,0,1.3,1.1,1.3,2C209.9,31,209.9,33.8,209.9,36.6z"/>
	<path class="st10" d="M98.9,58.2c-0.7,0-1.3-0.2-1.6-0.9C98,57.4,98.6,57.6,98.9,58.2z"/>
	<path class="st13" d="M274.1,90.8c0.1,4.8-3.4,8.8-7.6,8.8c-4.3-0.1-8-4-8-8.6c0-4.6,3.5-8.5,7.8-8.7
		C270.6,82.1,274,85.8,274.1,90.8z"/>
	<path class="st13" d="M340.6,74.8c0.5-2-1.2-5.9,0.8-6.4c3.6-0.9,7.8-1.3,11.5,0.4c2.9,1.4,4.4,4,3.9,7.3c-0.5,3.2-2.5,5.3-5.8,6
		c-0.9,0.2-1.9,0.2-2.8,0.2C340.6,82.5,340.6,82.5,340.6,74.8z"/>
	<path class="st13" d="M390,91.6c1.9,0.3,4.6-0.4,5.1,2.4c0.4,2.4-3.9,5.6-7,5.4c-2.4-0.1-5.1-0.7-4.8-3.6
		C383.6,92,386.9,91.7,390,91.6z"/>
	<path class="st13" d="M312.7,84.9c-4.3,1.8-8.3,3.5-12.7,5.3c0-3.8,1.8-6.1,4.7-7.5C307.8,81.3,310.3,82.1,312.7,84.9z"/>
	<path class="st13" d="M203.1,82.2c4.4,0,8,3.7,8.2,8.3c0.2,4.7-3.6,8.9-8.1,9c-4.3,0.1-7.9-3.7-8-8.4
		C195.1,86.1,198.6,82.2,203.1,82.2z"/>
	<path class="st13" d="M226.9,91c-0.1-5,3.5-8.8,8-8.8c4.4,0.1,8,3.8,8.1,8.5c0.1,4.7-3.8,8.9-8.2,8.9C230.6,99.6,227,95.6,226.9,91
		z"/>
	<path class="st0" d="M253.3,37c-0.1,4.4-3.2,7.5-7.3,7.5c-4.2,0-7.5-3.5-7.5-7.9c0.1-4.4,3.4-7.7,7.7-7.6
		C250.6,29,253.4,32.2,253.3,37z"/>
</g>
</svg>
